<svg width="508" height="541" viewBox="0 0 508 541" fill="none" xmlns="http://www.w3.org/2000/svg">
<g opacity="0.8">
<path fill-rule="evenodd" clip-rule="evenodd" d="M76.21 62.958C123.75 71.9324 220.214 148.611 256.972 190.486C291.132 229.401 304.345 249.375 317.648 306.471C330.408 361.235 317.321 447.28 314.062 504.142C309.886 577.013 348.414 679.912 302.342 718.42C254.948 758.032 196.17 686.275 141.579 666.7C105.289 653.688 70.7602 643.994 36.5056 623.1C-6.11627 597.102 -65.4808 588.983 -81.9188 530.375C-98.3333 471.849 -44.8493 420.576 -37.468 359.348C-28.3839 283.988 -72.4886 191.697 -34.3162 135.498C2.6531 81.0705 21.2074 52.575 76.21 62.958Z" fill="url(#paint0_linear_1_495)" fill-opacity="0.3"/>
<path fill-rule="evenodd" clip-rule="evenodd" d="M59.7867 175.082C101.896 175.166 143.55 187.407 179.293 217.953C212.51 246.34 234.462 291.03 251.219 338.678C267.293 384.379 252.576 424.602 254.927 474.743C257.94 539.002 303.318 630.069 266.811 671.173C229.255 713.457 171.664 660.428 122.464 652.245C89.758 646.804 58.8835 643.972 27.2275 631.325C-12.1614 615.588 -64.4639 618.176 -84.0816 569.721C-103.672 521.333 -61.8906 467.883 -61.0591 413.259C-60.0362 346.029 -106.754 272.693 -78.7202 217.44C-51.5701 163.93 11.0671 174.985 59.7867 175.082Z" fill="url(#paint1_linear_1_495)" fill-opacity="0.4"/>
<path opacity="0.4" fill-rule="evenodd" clip-rule="evenodd" d="M69.371 273.849C108.365 288.12 144.644 313.402 171.997 353.5C197.416 390.763 209.325 439.201 215.867 488.604C222.141 535.987 215.688 581.694 208.414 628.531C199.09 688.553 209.195 773.74 167.626 799.178C124.865 825.346 81.5112 757.237 37.4765 733.137C8.20472 717.117 -19.8625 704.11 -46.8031 681.825C-80.325 654.095 -129.264 638.843 -138.303 587.735C-147.329 536.697 -98.5467 501.701 -87.4787 451.822C-73.8563 390.432 -103.309 307.342 -66.9225 266.054C-31.6835 226.07 24.2572 257.336 69.371 273.849Z" fill="url(#paint2_linear_1_495)" fill-opacity="0.6"/>
</g>
<defs>
<linearGradient id="paint0_linear_1_495" x1="-22.6874" y1="637.041" x2="222.351" y2="204.828" gradientUnits="userSpaceOnUse">
<stop stop-color="#9EE6F7" stop-opacity="0"/>
<stop offset="1" stop-color="#9EE6F7" stop-opacity="0.46"/>
</linearGradient>
<linearGradient id="paint1_linear_1_495" x1="-33.2834" y1="649.344" x2="119.695" y2="224.941" gradientUnits="userSpaceOnUse">
<stop stop-color="#9EE6F7" stop-opacity="0"/>
<stop offset="1" stop-color="#9EE6F7" stop-opacity="0.46"/>
</linearGradient>
<linearGradient id="paint2_linear_1_495" x1="-106.255" y1="677.973" x2="141.281" y2="359.916" gradientUnits="userSpaceOnUse">
<stop stop-color="#005AE2"/>
<stop offset="1" stop-color="#73E6FF" stop-opacity="0.38"/>
</linearGradient>
</defs>
</svg>
