<svg width="350" height="860" viewBox="0 0 350 860" fill="none" xmlns="http://www.w3.org/2000/svg">
<g opacity="0.8">
<path fill-rule="evenodd" clip-rule="evenodd" d="M-81.7899 -40.0418C-34.25 -31.0674 62.214 45.6115 98.9723 87.4865C133.132 126.401 146.346 146.375 159.649 203.471C172.408 258.235 159.321 344.28 156.062 401.142C151.886 474.013 190.414 576.912 144.342 615.42C96.9481 655.032 38.1705 583.275 -16.4212 563.7C-52.7113 550.688 -87.2397 540.994 -121.494 520.1C-164.116 494.102 -223.481 485.983 -239.919 427.375C-256.333 368.849 -202.849 317.576 -195.468 256.348C-186.384 180.988 -230.488 88.6975 -192.316 32.4982C-155.347 -21.9293 -136.792 -50.4248 -81.7899 -40.0418Z" fill="url(#paint0_linear_1_430)" fill-opacity="0.3"/>
<path fill-rule="evenodd" clip-rule="evenodd" d="M-98.2132 72.0822C-56.1038 72.1661 -14.4496 84.4072 21.2936 114.953C54.5106 143.34 76.4616 188.03 93.2194 235.678C109.293 281.379 94.576 321.602 96.9275 371.743C99.9403 436.002 145.318 527.069 108.811 568.173C71.2553 610.458 13.6644 557.428 -35.5363 549.245C-68.2419 543.804 -99.1163 540.973 -130.772 528.325C-170.161 512.588 -222.464 515.176 -242.081 466.721C-261.672 418.333 -219.89 364.883 -219.059 310.259C-218.036 243.029 -264.754 169.693 -236.72 114.44C-209.57 60.9296 -146.933 71.9854 -98.2132 72.0822Z" fill="url(#paint1_linear_1_430)" fill-opacity="0.4"/>
<path opacity="0.4" fill-rule="evenodd" clip-rule="evenodd" d="M-88.6289 170.849C-49.6353 185.12 -13.3557 210.402 13.997 250.5C39.4159 287.763 51.3256 336.202 57.867 385.604C64.1407 432.987 57.6883 478.694 50.4137 525.531C41.0901 585.554 51.1947 670.74 9.62603 696.178C-33.1347 722.346 -76.4887 654.238 -120.523 630.137C-149.795 614.117 -177.862 601.11 -204.803 578.825C-238.325 551.095 -287.264 535.843 -296.302 484.735C-305.328 433.697 -256.547 398.701 -245.479 348.822C-231.856 287.432 -261.309 204.342 -224.922 163.054C-189.683 123.07 -133.743 154.336 -88.6289 170.849Z" fill="url(#paint2_linear_1_430)" fill-opacity="0.6"/>
</g>
<defs>
<linearGradient id="paint0_linear_1_430" x1="-180.687" y1="534.041" x2="64.3511" y2="101.829" gradientUnits="userSpaceOnUse">
<stop stop-color="#9EE6F7" stop-opacity="0"/>
<stop offset="1" stop-color="#9EE6F7" stop-opacity="0.46"/>
</linearGradient>
<linearGradient id="paint1_linear_1_430" x1="-191.283" y1="546.344" x2="-38.3052" y2="121.941" gradientUnits="userSpaceOnUse">
<stop stop-color="#9EE6F7" stop-opacity="0"/>
<stop offset="1" stop-color="#9EE6F7" stop-opacity="0.46"/>
</linearGradient>
<linearGradient id="paint2_linear_1_430" x1="-264.255" y1="574.973" x2="-16.7186" y2="256.916" gradientUnits="userSpaceOnUse">
<stop stop-color="#005AE2"/>
<stop offset="1" stop-color="#73E6FF" stop-opacity="0.38"/>
</linearGradient>
</defs>
</svg>
